<svg xmlns="http://www.w3.org/2000/svg" xmlns:xlink="http://www.w3.org/1999/xlink" width="2093.25" height="1209.469" viewBox="0 0 2093.25 1209.469"><defs><style>.a{clip-path:url(#a);}.b,.h{fill:#062c51;}.c{fill:#1e84ed;}.d,.f{fill:#716c80;}.d,.f,.i,.j{font-size:18px;}.d,.f,.i,.j,.l{font-family:Nunito-Regular, Nunito;}.d{opacity:0.8;}.e,.q{fill:none;}.e{stroke:#6852ed;stroke-miterlimit:10;}.g{fill:#6852ed;font-family:SegoeUI, Segoe UI;}.g,.l{font-size:16px;}.h,.k{font-size:20px;}.h{font-family:Poppins-SemiBold, Poppins;font-weight:600;}.i{fill:#554d89;}.j,.k,.l,.m,.n{fill:#fff;}.k{font-family:Poppins-Medium, Poppins;font-weight:500;}.m{font-size:22px;font-family:Poppins-Bold, Poppins;font-weight:700;}.n{font-size:42px;font-family:SegoeUI-Light, Segoe UI;font-weight:300;}.o{fill:#e1dcff;}.p{stroke:none;}</style><clipPath id="a"/></defs><g transform="translate(314.25 99.234)"><g transform="translate(1920 500) rotate(180)"><g class="a"><circle class="b" cx="74" cy="74" r="74" transform="translate(788 -123)"/><rect class="c" width="485" height="1213" rx="242.5" transform="matrix(0.719, 0.695, -0.695, 0.719, 1885.37, -610.234)"/><circle class="c" cx="30" cy="30" r="30" transform="translate(286 91)"/><circle class="b" cx="10" cy="10" r="10" transform="translate(373 81)"/><circle class="b" cx="50.5" cy="50.5" r="50.5" transform="translate(141 399)"/></g></g><g transform="translate(1246 100)"><text class="d" transform="translate(0 142)"><tspan x="0" y="18">Keep up to date with all new </tspan><tspan x="0" y="45">themes and updates.</tspan></text><g transform="translate(0 60)"><g class="e"><rect class="p" width="299" height="50" rx="25"/><rect class="q" x="0.5" y="0.5" width="298" height="49" rx="24.5"/></g><text class="f" transform="translate(24 32)"><tspan x="0" y="0">Enter your email</tspan></text><text class="g" transform="translate(256 17)"><tspan x="0" y="17"></tspan></text></g><text class="h" transform="translate(0 24)"><tspan x="0" y="0">Subscribe</tspan></text></g><g transform="translate(868 100)"><text class="i" transform="translate(0 80)"><tspan x="0" y="0">About company</tspan></text><text class="i" transform="translate(0 117)"><tspan x="0" y="0">Terms and Conditions</tspan></text><text class="i" transform="translate(0 154)"><tspan x="0" y="0">Privacy Policy</tspan></text><text class="i" transform="translate(203 80)"><tspan x="0" y="0">Pricing plans</tspan></text><text class="i" transform="translate(203 117)"><tspan x="0" y="0">Contact</tspan></text><text class="h" transform="translate(0 24)"><tspan x="0" y="0">Links</tspan></text></g><g transform="translate(390 100)"><text class="j" transform="translate(0 146)"><tspan x="0" y="18">Address:21 Ananya Chaitanya Layout, </tspan><tspan x="0" y="45">Seegehalli Kadugodi Post, Bangalore </tspan></text><text class="j" transform="translate(6 233)"><tspan x="0" y="0">E-mail: info@grafitti.com</tspan></text><text class="k" transform="translate(0 24)"><tspan x="0" y="0">Contacts</tspan></text><g transform="translate(0 60)"><g transform="translate(70)"><text class="l" transform="translate(0 21)"><tspan x="0" y="0">Have questions?</tspan></text><text class="m" transform="translate(0 47)"><tspan x="0" y="0">+919966908431</tspan></text></g><text class="n" transform="translate(0 6)"><tspan x="0" y="45"></tspan></text></g></g><rect class="o" width="99" height="4" transform="translate(855 368)"/></g></svg>