<svg id="Video" xmlns="http://www.w3.org/2000/svg" xmlns:xlink="http://www.w3.org/1999/xlink" width="1920" height="480" viewBox="0 0 1920 480">
  <defs>
    <style>
      .cls-1 {
        opacity: 0.05;
        fill: url(#linear-gradient);
      }

      .cls-2 {
        clip-path: url(#clip-path);
      }

      .cls-3 {
        fill: #6852ed;
      }

      .cls-4, .cls-8 {
        fill: #1e84ed;
      }

      .cls-5, .cls-7 {
        fill: #062c51;
      }

      .cls-6 {
        fill: #30c7a8;
      }

      .cls-7 {
        font-size: 28px;
        font-family: Poppins-Bold, Poppins;
        font-weight: 700;
      }

      .cls-8 {
        font-size: 18px;
        font-family: Nunito-Regular, Nunito;
      }
    </style>
    <linearGradient id="linear-gradient" x1="0.5" x2="0.5" y2="1" gradientUnits="objectBoundingBox">
      <stop offset="0" stop-color="#6852ed"/>
      <stop offset="1" stop-color="#ba43fc"/>
    </linearGradient>
    <clipPath id="clip-path">
      <rect id="Bg" class="cls-1" width="1920" height="480"/>
    </clipPath>
  </defs>
  <g id="Background">
    <rect id="Bg-2" data-name="Bg" class="cls-1" width="1920" height="480"/>
    <g id="Background-2" data-name="Background" class="cls-2">
      <circle id="Bg-3" data-name="Bg" class="cls-3" cx="10" cy="10" r="10" transform="translate(318 274)"/>
      <circle id="Bg-4" data-name="Bg" class="cls-4" cx="25" cy="25" r="25" transform="translate(365 49)"/>
      <circle id="Bg-5" data-name="Bg" class="cls-5" cx="90.5" cy="90.5" r="90.5" transform="translate(26 68)"/>
      <circle id="Bg-6" data-name="Bg" class="cls-4" cx="18.5" cy="18.5" r="18.5" transform="translate(1283 49)"/>
      <circle id="Bg-7" data-name="Bg" class="cls-6" cx="40" cy="40" r="40" transform="translate(1465 314)"/>
      <circle id="Bg-8" data-name="Bg" class="cls-4" cx="107.5" cy="107.5" r="107.5" transform="translate(1813 109)"/>
      <path id="Shape" class="cls-5" d="M32.011,565.72a100.809,100.809,0,0,1-4.674-142.7L394.417,31.948A101.068,101.068,0,0,1,542.083,169.984L175.007,561.056a101.306,101.306,0,0,1-143,4.664" transform="translate(1728 -525)"/>
      <path id="Shape-2" data-name="Shape" class="cls-5" d="M.057,510.369a103.287,103.287,0,0,1,28.066-74.513L405.752,32.917a104.049,104.049,0,1,1,151.91,142.227L180.036,578.086a104.1,104.1,0,0,1-147.105,4.806A103.309,103.309,0,0,1,.057,510.369Z" transform="translate(50 385)"/>
    </g>
  </g>
  <g id="Text" transform="translate(755 244)">
    <text id="How_it_works" data-name="How it works" class="cls-7" transform="translate(119 34)"><tspan x="0" y="0">How it works</tspan></text>
    <text id="This_app_does_everyt" data-name="This app does everyt" class="cls-8" transform="translate(0 63)"><tspan x="15.744" y="18" xml:space="preserve">sfrgrtthrh tgrhgh ujujghg jikjhfgfg  ggfgdfg dgg </tspan><tspan x="122.457" y="46">ascasdas asdsaddad</tspan></text>
  </g>
</svg>
