<svg xmlns="http://www.w3.org/2000/svg" xmlns:xlink="http://www.w3.org/1999/xlink" width="1920" height="480" viewBox="0 0 1920 480"><defs><style>.a{opacity:0.05;fill:url(#a);}.b{clip-path:url(#c);}.c{fill:#6852ed;}.d{fill:#1e84ed;}.e{fill:#062c51;}.f{fill:#30c7a8;}</style><linearGradient id="a" x1="0.5" x2="0.5" y2="1" gradientUnits="objectBoundingBox"><stop offset="0" stop-color="#6852ed"/><stop offset="1" stop-color="#ba43fc"/></linearGradient><clipPath id="c"><rect class="a" width="1920" height="480"/></clipPath></defs><rect class="a" width="1920" height="480"/><g class="b"><circle class="c" cx="10" cy="10" r="10" transform="translate(318 274)"/><circle class="d" cx="25" cy="25" r="25" transform="translate(365 49)"/><circle class="e" cx="90.5" cy="90.5" r="90.5" transform="translate(26 68)"/><circle class="d" cx="18.5" cy="18.5" r="18.5" transform="translate(1283 49)"/><circle class="f" cx="40" cy="40" r="40" transform="translate(1465 314)"/><circle class="d" cx="107.5" cy="107.5" r="107.5" transform="translate(1813 109)"/><path class="e" d="M32.011,565.72a100.809,100.809,0,0,1-4.674-142.7L394.417,31.948A101.068,101.068,0,0,1,542.083,169.984L175.007,561.056a101.306,101.306,0,0,1-143,4.664" transform="translate(1728 -525)"/><path class="e" d="M.057,510.369a103.287,103.287,0,0,1,28.066-74.513L405.752,32.917a104.049,104.049,0,1,1,151.91,142.227L180.036,578.086a104.1,104.1,0,0,1-147.105,4.806A103.309,103.309,0,0,1,.057,510.369Z" transform="translate(50 385)"/></g></svg>