<svg xmlns="http://www.w3.org/2000/svg" xmlns:xlink="http://www.w3.org/1999/xlink" width="631.994" height="717.824" viewBox="0 0 631.994 717.824"><defs><style>.a,.j,.o{opacity:0.1;}.a,.r{fill:url(#a);}.b{fill:url(#b);}.c,.s{fill:#fff;}.d{fill:url(#c);}.e{fill:url(#d);}.f{opacity:0.15;}.g{fill:url(#e);}.h{fill:url(#f);}.i{fill:url(#g);}.j,.k{fill:#231f20;}.l{fill:#ffd4d4;}.m{fill:url(#l);}.n{fill:url(#n);}.p{fill:url(#q);}.q{fill:#d6d6d6;}.s,.u{opacity:0.2;}.t{fill:#eb008b;opacity:0.5;}.u{fill:#25a9e0;}.v{fill:#00d1c8;}.w{fill:#ff85bb;}.x{fill:#6852ed;}.y{fill:#ba43fc;}</style><linearGradient id="a" x1="0.5" y1="1" x2="0" gradientUnits="objectBoundingBox"><stop offset="0" stop-color="#6852ed"/><stop offset="1" stop-color="#ba43fc"/></linearGradient><linearGradient id="b" x1="0.479" y1="0.495" x2="0.926" y2="1.4" gradientUnits="objectBoundingBox"><stop offset="0" stop-color="#1edda1"/><stop offset="1" stop-color="#8dffdb"/></linearGradient><linearGradient id="c" x1="0.41" y1="-1.435" x2="0.625" y2="2.237" gradientUnits="objectBoundingBox"><stop offset="0" stop-color="#2a5de6"/><stop offset="0.3" stop-color="#3046bb"/><stop offset="1" stop-color="#9e2ae6"/></linearGradient><linearGradient id="d" x1="0.926" y1="-0.08" x2="-0.042" y2="0.765" gradientUnits="objectBoundingBox"><stop offset="0" stop-color="#2a5de6"/><stop offset="1" stop-color="#3a2ae6"/></linearGradient><linearGradient id="e" x1="0.795" y1="0.328" x2="-0.628" y2="1.023" gradientUnits="objectBoundingBox"><stop offset="0" stop-color="#151875"/><stop offset="1" stop-color="#662ae6"/></linearGradient><linearGradient id="f" x1="-0.292" y1="-0.616" x2="0.856" y2="1.494" xlink:href="#c"/><linearGradient id="g" x1="0.673" y1="-0.021" x2="0.254" y2="0.899" xlink:href="#d"/><linearGradient id="l" x1="0.471" y1="1.845" x2="0.502" y2="0.218" gradientUnits="objectBoundingBox"><stop offset="0" stop-color="#cff8ff"/><stop offset="1" stop-color="#d6f9ff"/></linearGradient><linearGradient id="n" x1="-0.007" y1="0.545" x2="0.994" y2="0.558" gradientUnits="objectBoundingBox"><stop offset="0" stop-color="#3046bb"/><stop offset="1" stop-color="#4c30bb"/></linearGradient><linearGradient id="q" x1="0.496" y1="0.992" x2="0" gradientUnits="objectBoundingBox"><stop offset="0" stop-color="#ef7171"/><stop offset="1" stop-color="#ff8560"/></linearGradient></defs><g transform="translate(-0.725 -14.595)"><rect class="a" width="360" height="537" rx="180" transform="matrix(0.719, -0.695, 0.695, 0.719, 0.725, 267.135)"/><g transform="translate(546.478 27.218) rotate(-177)"><g transform="translate(0 -0.336)"><path class="b" d="M-26.226,151.686c-4.938-8.435-31.439-69.013-41.408-90.675-24.714-53.676.682-59.558.682-59.558C-38.226-5.824-39.446,15.447-30.328,38.26-17.937,69.208-8.16,107.088-.055,139.087,1.333,144.761-24.109,155.351-26.226,151.686Z" transform="translate(93.696 -124.25) rotate(180)"/><path class="c" d="M-50,.046C-31.937.283-31.73,18.725-23.932,38.279S-1.143,105.4,0,107.008C-6.311,83.566-13.526,59.3-21.961,38.233-30.066,17.989-30-1.058-50,.046Z" transform="translate(102.125 -124.246) rotate(180)"/><path class="d" d="M-3.55,21.471C-5.4,15.075-9.769,6.9-11.218,0-19.27.629-27.4,1.265-35.373,1.779c-.069,11.5-8.512,14.171-18.656,18.5-13.35,5.705-26.194,8.918-27.72,25.8,27.605-1.664,54.29-4.9,81.749-7.668A130,130,0,0,0-3.55,21.471Z" transform="translate(374.893 -554.309) rotate(180)"/><path class="e" d="M-11.507,0C-68.665,21.064-124.864,36.807-172.743,50.08c-41.408,11.5-51.376,23.809-56.4,41.722-20.642,73.744-6.28,180.2-6.28,180.2s22.452-.767,38.586-6.8c-7.668-48.754,18.61-157.326,18.61-157.326S-102.113,93.5-80.842,91.342C15.5,81.55,6.59,34.989-11.507,0Z" transform="translate(182.198 -287.453) rotate(180)"/><path class="f" d="M-227.411,297.046A14.569,14.569,0,0,0-216.9,290.74a14.569,14.569,0,0,0,1.978-12.1l-.054-.192c-1.8-6.242-6-14.186-7.538-20.957,2.385-.644,4.724-1.373,6.947-2.208-7.668-48.754,18.618-157.326,18.618-157.326s76.106-14.378,97.384-16.532c83.674-8.435,87.945-44.682,75.776-76.98Q-17.651,2.262-11.517,0C6.58,34.989,15.529,81.55-80.836,91.3c-21.287,2.155-97.384,16.532-97.384,16.532s-26.3,108.572-18.61,157.326c-2.224.836-4.562,1.534-6.947,2.208,1.534,6.771,5.736,14.715,7.538,20.957a130.005,130.005,0,0,1,3.558,16.931c-27.459,2.745-54.129,5.981-81.749,7.668a23.426,23.426,0,0,1,3.88-11.563C-256.128,300.09-241.835,298.556-227.411,297.046Z" transform="translate(182.203 -287.484) rotate(180)"/><path class="g" d="M-25.558,30.335C-22.138,18.127-16.417,8.519,0,0-12.967,7.883-19.991,18.1-23.073,29.139c-5.038,18-9.041,40.2-12.683,68.023C-34.422,74.357-31.385,51.054-25.558,30.335Z" transform="translate(385.751 -348.92) rotate(180)"/><path class="h" d="M-10.973,18.1C-15.612,12.514-23.556,6.242-28,0c-7.775,4.156-15.612,8.335-23.357,12.338,4.961,11.5-2.3,17.867-10.544,26.631-10.85,11.5-22.276,20.343-16.417,37.888C-51.476,63.124-26.232,48.24,0,33.5A141.56,141.56,0,0,0-10.973,18.1Z" transform="translate(181.029 -637.078) rotate(180)"/><path class="i" d="M-41.728,0c-38.823,53.891-53.861,75.914-89.034,117.137-30.419,35.649-31.93,52.841-25.542,72.08,26.309,79.242,72.08,176.5,72.08,176.5s22.1-10.567,35.572-23.648c-28.978-45.341-51.882-169.4-51.882-169.4s33.855-32.973,51.782-47.887C32.437,57.227-4.032,20.589-41.728,0Z" transform="translate(154.054 -290.221) rotate(180)"/><path class="f" d="M-61.747,386.793a15.85,15.85,0,0,0,7.776-10.9,15.85,15.85,0,0,0-3.351-12.967l-.138-.169c-4.524-5.444-12.192-11.548-16.686-17.637,2.1-1.679,4.125-3.435,5.981-5.23-28.978-45.349-51.859-169.418-51.859-169.418S-86.17,137.5-68.242,122.582C2.212,63.936-15.984,28.594-46.672,6.794Q-44.2,3.412-41.734,0c37.7,20.589,74.166,57.227-6.993,124.782C-66.655,139.7-100.51,172.67-100.51,172.67s22.9,124.062,51.882,169.4c-1.856,1.8-3.872,3.558-5.973,5.237,4.493,6.088,12.162,12.2,16.686,17.637a141.562,141.562,0,0,1,10.973,15.405c-26.232,14.738-51.453,29.622-78.314,43.355a26.5,26.5,0,0,1-1.426-11.755C-91.538,403.762-76.723,395.327-61.747,386.793Z" transform="translate(154.026 -290.198) rotate(180)"/><path class="g" d="M-5.13,0c.092,1.411-23.242,29.422-16.77,56.6C-17.407,75.5-.046,124.384,0,126c-8.274-20.9-16.379-42.581-23.181-63.062C-28.993,45.418-28.28,29.591-5.13,0Z" transform="translate(287.178 -416.506) rotate(180)"/><path class="b" d="M-48.309,0,0,130.288l-5.368,5.582a21.226,21.226,0,0,1-36.147-10.812L-64.458,2.876Z" transform="translate(306.548 -119.622) rotate(180)"/><path class="b" d="M-73.347,130.882c7.607-6.18,30.22-42.634,46.775-59.773,51.161-53,12.7-69.457,12.7-69.457-10.781-8.489-25.91,17.637-39.6,35C-74.106,62.836-72.358,62.721-91.206,89.8-94.58,94.628-76.636,133.566-73.347,130.882Z" transform="translate(237.058 -123.077) rotate(180)"/><path class="f" d="M-24.306,59.926C-38.614,74.748-57.455,104-67.208,115.65h0a31.952,31.952,0,0,1-3.834,4.056l-.1.054-1.419,1.472a21.226,21.226,0,0,1-36.147-10.812L-129.412,0l-4.44.767,22.882,122.244a21.227,21.227,0,0,0,36.147,10.812l1.419-1.472a.268.268,0,0,0,.1-.061,31.262,31.262,0,0,0,3.834-4.049h0c9.754-11.648,28.594-40.9,42.9-55.724C-5.78,50.977.209,35.472-.006,24.661-3.249,33.993-10.526,45.648-24.306,59.926Z" transform="translate(237.1 -121.669) rotate(180)"/><path class="b" d="M-.023,16.922C.567,8.211-9.8-2.417-58.017.489c-48.01,2.891-67.709.368-67.8,9.125l1.794,186.1c-.092,7.354,5.184,6.134,11.579,6.387l44.59,1.787,1.419.061,44.59,1.787c6.4.253,12-5.444,12.507-12.775l-3.681-17.015Z" transform="translate(136.6 -118.496) rotate(180)"/><path class="f" d="M-28.449,94.463C-.728,79.3-12.231,0-12.231,0S-4.908,27.176,0,20.911l-6.9,84.272L-3.221,122.2c-.506,7.331-6.134,13.036-12.507,12.775l-44.59-1.787-1.419-.061-44.59-1.787c-6.4-.261-11.671.966-11.579-6.387l-.882-18.549C-96.855,118.341-51.4,111.762-28.449,94.463Z" transform="translate(142.735 -189.256) rotate(180)"/><path class="c" d="M-1.457,0,0,88.39a266.212,266.212,0,0,1-2.239,30.059S-2.216,2.339-1.457,0Z" transform="translate(258.891 -143.032) rotate(180)"/><path class="j" d="M0,.529-.491,0-2.17,2.377C-1.434,1.756-.713,1.158,0,.529Z" transform="translate(188.935 -353.276) rotate(180)"/><path class="k" d="M-.752,6.993C-3.428,5.912-11.986.445-14.9,0c-1.281,7.745-3.067,22.138-16.6,22.506C-46.485,20.029-45.856,7.7-45.81,5.636c-1.258.414-4.938,3.658-5.368,3.788-11.149,8.32-9.2,25.634,1.442,34.989,5.5-5.575,10.8-13.5,16.778-18.817-2.714,8.328-4.655,22.322-4.655,22.322l5.483.429s2.6-15.374,4.072-22.728c6.349,4.087,9.708,9.6,12.1,16.425C-9.118,33.057,3.158,18.465-.752,6.993Z" transform="translate(166.888 -119.031) rotate(180)"/><path class="l" d="M-41.806,13.925-22.5,1.1,0,0S-14.7,33.226-4.171,43.294c9.148,8.749-9.547,16.226-20.213,13.128s-24.024-3.259-14.968-16.54C-35.81,34.721-41.806,13.925-41.806,13.925Z" transform="translate(175.454 -83.367) rotate(180)"/><path class="k" d="M-17.13,6.641l6.618,7.668A122.344,122.344,0,0,1-5.958,1.794l-18.978.936L-22.5,1.1,0,0A120.741,120.741,0,0,0-6.4,19.393c-.13.606-.491,2.4-1.2,6.671.445-.4.406-.353,0,0-.882,6.978-.353,13.588,3.428,17.207,6.51,6.234-1.089,11.816-9.861,13.4,5.651-2.515,8.841-6.9,3.9-11.6-3.236-3.067-4.087-8.374-3.719-14.194-6.986,4.908-17.936,11.134-24.73,7.737a13.626,13.626,0,0,0,.322-4.662C-38.547,31.086-17.13,6.641-17.13,6.641Z" transform="translate(175.454 -83.36) rotate(180)"/><path class="l" d="M-51.947,1.257A41.185,41.185,0,0,1-33.2.919C-23.944,2.714-13.561,4.485-5.479,9.5,6.3,16.8-4.444,45.133-5.326,57.809a38.946,38.946,0,0,1-1.35,9.539c-1.3,4.079-15,20.366-27.85,22.859-21.471,1.166-29.783-.82-29.767-7.944,0-7.875,1.426-59.167,1.925-64.872C-59.991,7.613-63.971,4.262-51.947,1.257Z" transform="translate(169.439 -27.115) rotate(180)"/><path class="k" d="M-15.562,72.34A38.724,38.724,0,0,0-14.205,62.8c.874-12.7,11.617-41.024-.153-48.309-8.09-5.015-18.465-6.786-27.728-8.581a41.139,41.139,0,0,0-18.442.268c.943-2.109,3.067-3.55,8.581-4.923A41.185,41.185,0,0,1-33.2.919C-23.944,2.714-13.561,4.485-5.479,9.5,6.3,16.8-4.444,45.133-5.326,57.809a38.946,38.946,0,0,1-1.35,9.539c-1.181,3.7-12.53,17.414-24.216,21.808C-22.87,83.274-16.429,75.077-15.562,72.34Z" transform="translate(169.439 -27.146) rotate(180)"/><path class="m" d="M-.754,6.986C-3.431,5.9-11.988.445-14.894,0c-1.288,7.745-3.067,22.138-16.6,22.506C-46.487,20.021-45.85,7.691-45.8,5.636c-1.265.414-4.946,3.658-5.368,3.78-11.157,8.328-9.24,25.642,1.442,34.989,5.5-5.567,10.8-13.5,16.77-18.81-2.707,8.32-3.067,25.09-3.067,25.09l5.483.429s1-18.173,2.438-25.519c6.341,4.087,9.7,9.6,12.093,16.425C-9.12,33.057,3.164,18.457-.754,6.986Z" transform="translate(168.497 -116.263) rotate(180)"/><path class="c" d="M-2.124,9.148A78.214,78.214,0,0,0-.261,0L0,.054A55.011,55.011,0,0,1-2.124,9.148Z" transform="translate(183.13 -116.263) rotate(180)"/><path class="c" d="M-26.67,6.587c6.311,4.072,9.708,9.593,12.1,16.417C-9.968,16.985-2.922,8.435,0,0-2.507,9-10.237,18.35-15.167,24.791c-2.362-6.74-5.674-12.2-11.87-16.272C-26.892,7.814-26.785,7.162-26.67,6.587Z" transform="translate(169.343 -133.501) rotate(180)"/><path class="c" d="M-26.992,0c-2.224,8.435.974,18.48,8.251,24.852,5.5-5.575,10.8-13.5,16.778-18.817-2.714,8.328-3.067,25.1-3.067,25.1L0,31.516c-.069,1.135-.107,1.817-.107,1.817L-5.59,32.9s.337-16.77,3.067-25.09c-5.966,5.314-11.272,13.243-16.77,18.81C-27.1,19.8-30.22,8.719-26.992,0Z" transform="translate(198.949 -134.022) rotate(180)"/><path class="b" d="M-109.254,49.375-22.9,0-6.525,10.919A14.677,14.677,0,0,1-.1,24.845a14.677,14.677,0,0,1-9.49,12.046L-97.077,67.2Z" transform="translate(93.185 -244.052) rotate(180)"/><path class="l" d="M-15.328,18.934c2.185,3.428,5.582,7.76,7.553,1.235.475-1.58-.345-5.421.9-6.564,2.17-1.986,3.5,2.461,4.125,4.133,4.47,11.809,4.6,28.372-8.212,34.6-9.631,4.708-19.615-2.868-24.737-10.536-5.03-7.522-6.786-16.486-2.4-24.538,1.158-2.147,2.538-3.834,3.336-6s1.043-4.171,2.04-6.18C-32.136,3.913-29.491-.1-28.118,0c1.71.13,3.619,3.834,4.386,5.069,2.684,4.217,5.161,8.65,7.791,12.921Z" transform="translate(350.563 -73.642) rotate(180)"/><path class="k" d="M-7.054,4.494c4.463,11.809,4.6,28.372-8.22,34.6A14.155,14.155,0,0,1-19.8,40.449a14,14,0,0,0,8.849-1.212C1.834,32.988,1.734,16.448-2.737,4.64-3.365,2.968-4.692-1.495-6.862.507A3.757,3.757,0,0,0-7.59,3.045C-7.368,3.581-7.192,4.1-7.054,4.494Z" transform="translate(350.579 -86.756) rotate(180)"/><path class="k" d="M-15.091,4.915C-12.407,9.133-3.182,21.195,0,22.122a21.317,21.317,0,0,1-2.362-3.159l-.613-.974c-2.63-4.271-5.107-8.711-7.791-12.921C-11.533,3.857-13.442.13-15.152,0c-.575,0-1.357.629-2.132,1.534a35.534,35.534,0,0,1,2.193,3.382Z" transform="translate(363.529 -73.613) rotate(180)"/><path class="n" d="M-1.3,51.067A29.829,29.829,0,0,0-.07,40.331c-.583-7.913-2.247-16.456-8.757-21.708-2.745-2.208-7.906-7.055-11.732-5.874.414-.123-3.267-6.326-3.589-6.725a15.559,15.559,0,0,0-6.48-4.6C-35.887-.6-41.983.028-47.5.358c-8.435.506-17.836,1.258-25.542,5.015-7.331,3.573-9.355,9.2-12.185,16.279-2.109,5.276-6.97,7.208-11.978,8.8-.192,1.725.982,3.328,2.3,4.355,1.94,1.534,3.067,1.035.767,2.86-2.991,2.354-8.987,2.722-12.269,1.235.092,2.914,2.645,6.211,4.678,8.189a84.233,84.233,0,0,0,6.533,5.9c5.46,4.271,19.017,7.154,30.128,5.306,3.673-.606,7.285-1.534,10.927-2.3,4.417-.943,8.657-1.978,12.5-4.386,2.3-1.426,3.665-3.765,5.943-5.368a85.578,85.578,0,0,0-.951,23.894c.429,3.834.767,8.535,1.618,12.982a151.215,151.215,0,0,1,21.593-11.1C-8.527,65.7-3.582,58.758-1.3,51.067Z" transform="translate(144.176 -0.156) rotate(180)"/><g class="o" transform="translate(165.164 -23.771)"><path class="k" d="M-84.924,14.822c3.282,1.488,9.278,1.12,12.269-1.235,2.3-1.825,1.212-1.35-.767-2.86-1.327-1.028-2.5-2.63-2.3-4.355C-71.574,5.053-67.525,3.5-65.064,0c-1.158,3.129-2.991,5.728-6.794,6.84,1.771,3.834,6,4.1,9.6,6.572-4.041.767-6.694,3.343-10.735,4.11,12.384,10.229,27.927,9.4,42.711,4.532C-20.527,18.1-13.2,12.522-8.841,2.3-11.249,17.836-14.324,41.76,0,51.568a138.378,138.378,0,0,0-13.549,7.461c-.889-4.447-1.189-9.148-1.618-12.982a85.578,85.578,0,0,1,.951-23.894c-2.3,1.534-3.665,3.9-5.943,5.368-3.834,2.408-8.082,3.443-12.5,4.386-3.642.767-7.254,1.7-10.927,2.3C-54.7,36.055-68.253,33.172-73.713,28.9A84.233,84.233,0,0,1-80.246,23C-82.317,21-84.832,17.7-84.924,14.822Z" transform="translate(0.498 -0.514) rotate(180)"/></g><path class="g" d="M-20.435,14.094C-27.413,9.83-33.325,3.711-35.166,0c.092,2.914,2.645,6.211,4.678,8.189a84.234,84.234,0,0,0,6.533,5.9c4.478,3.466,14.4,6.027,23.955,5.851A46.684,46.684,0,0,1-20.435,14.094Z" transform="translate(215.42 -39.107) rotate(180)"/><path class="g" d="M-57.234,34.776c1.94,1.534,3.067,1.035.767,2.86a11.563,11.563,0,0,1-5.92,2.04c3.213.422,7.154-.23,9.409-1.994s1.2-1.35-.767-2.86c-1.319-1.028-2.5-2.63-2.3-4.355,5-1.595,9.861-3.527,11.97-8.8,2.837-7.085,4.854-12.714,12.185-16.279C-24.147,1.635-14.792.883-6.357.377-4.294.254-2.155.086,0,.032a85.882,85.882,0,0,0-9.876.3c-8.435.506-17.836,1.258-25.542,5.015-7.331,3.573-9.355,9.2-12.185,16.279-2.109,5.276-6.97,7.208-11.978,8.8A5.3,5.3,0,0,0-57.234,34.776Z" transform="translate(181.811 -0.198) rotate(180)"/><path class="l" d="M-32.531,12.163c4-.7,9.317-2.155,4.056-6.487C-29.748,4.625-33.612,3.9-34.18,2.294c-.989-2.761,3.612-2.3,5.406-2.208C-16.16.53-.862,6.818-.026,21.027.6,31.762-10.248,38.012-19.3,39.775c-8.887,1.733-17.828-.107-23.595-7.269-1.534-1.9-2.553-3.834-4.24-5.368s-3.451-2.576-4.915-4.271c-.859-.989-3.535-4.977-2.914-6.2.767-1.534,4.954-1.848,6.364-2.093,4.923-.843,9.968-1.419,14.93-2.2Z" transform="translate(190.258 -289.261) rotate(180)"/><path class="k" d="M-30.578,4.006c12.614.437,27.912,6.725,28.74,20.941a14.209,14.209,0,0,1-.491,4.693,14.025,14.025,0,0,0,2.3-8.627C-.864,6.8-16.131.517-28.776.072c-1.794-.061-6.4-.552-5.406,2.208a3.725,3.725,0,0,0,2.063,1.664C-31.529,3.96-30.984,3.99-30.578,4.006Z" transform="translate(190.256 -289.275) rotate(180)"/><path class="k" d="M-21.693,7.277C-16.77,6.426-2.086,2.569,0,0A22,22,0,0,1-3.834.959l-1.135.184c-4.954.767-10.007,1.357-14.93,2.2-1.411.245-5.582.56-6.364,2.093-.253.514.054,1.5.567,2.546a35.787,35.787,0,0,1,4-.705Z" transform="translate(218.963 -300.466) rotate(180)"/><path class="p" d="M-24.024,18.588H-3.489A3.493,3.493,0,0,0,0,15.1V3.489A3.493,3.493,0,0,0-3.489,0H-24.024a3.47,3.47,0,0,0-2.457,1.011,3.514,3.514,0,0,0-1.032,2.479V15.1A3.493,3.493,0,0,0-24.024,18.588Zm18.4-16.44A2.7,2.7,0,0,1-2.93,4.823v8.933a2.706,2.706,0,0,1-.788,1.911,2.7,2.7,0,0,1-1.9.788H-21.831a2.7,2.7,0,0,1-2.7-2.7V4.838a2.7,2.7,0,0,1,2.7-2.691H-5.62Z" transform="translate(183.912 -63.031) rotate(180)"/><path class="p" d="M-19.884,18.588h17C-1.294,18.588,0,17.022,0,15.1V3.489A3.865,3.865,0,0,0-.846,1.011,2.641,2.641,0,0,0-2.884,0h-17c-1.59,0-2.883,1.565-2.883,3.489V15.1a3.87,3.87,0,0,0,.843,2.478A2.64,2.64,0,0,0-19.884,18.588ZM-4.677,2.132A2.5,2.5,0,0,1-2.446,4.823v8.933a2.5,2.5,0,0,1-2.231,2.7H-18.089a2.472,2.472,0,0,1-2.231-2.7V4.823a2.5,2.5,0,0,1,2.231-2.691Z" transform="translate(216.916 -63.032) rotate(180)"/><rect class="p" width="10.927" height="3.313" transform="translate(219.369 -69.94) rotate(180)"/><path class="p" d="M-13.189,4.187H-1.848L0,0H-13.189V4.187Z" transform="translate(170.693 -66.566) rotate(180)"/><path class="l" d="M-.427,6.908C1.743,13.043-4.744,20.565-11.239,20s-5.667-1.58-5.667-1.58S-15.663-.6-9.168.015-2.666.544-.427,6.908Z" transform="translate(158.472 -65.402) rotate(180)"/><path class="k" d="M-10.076.076A3.244,3.244,0,0,1-9.164.007c6.495.575,6.495.575,8.742,6.9a9.127,9.127,0,0,1-1.534,8.228A9.5,9.5,0,0,1-7.807,16.67c-6.495-.575-5.674-1.58-5.674-1.58S-12.829,5.4-10.076.076Z" transform="translate(161.912 -68.66) rotate(180)"/><path class="q" d="M-114.845,0H-6A6,6,0,0,1,0,5.989H0a6,6,0,0,1-6,6H-114.883A6,6,0,0,1-120.833,6h0a5.989,5.989,0,0,1,1.749-4.245A5.989,5.989,0,0,1-114.845,0Z" transform="translate(196.312 -336.759) rotate(180)"/><rect class="q" width="156.367" height="121.355" rx="22.4" transform="translate(427.366 -227.389) rotate(180)"/><rect class="c" width="156.367" height="121.355" rx="22.4" transform="translate(432.166 -227.389) rotate(180)"/><path class="r" d="M-21.655,10.781A10.827,10.827,0,0,0-15,20.818,10.827,10.827,0,0,0-3.185,18.5,10.827,10.827,0,0,0-.822,6.689,10.827,10.827,0,0,0-10.835,0,10.82,10.82,0,0,0-21.655,10.781Z" transform="translate(349.174 -274.517) rotate(180)"/><g transform="translate(273 -333) rotate(180)"><path class="s" d="M95.572,76.112h-.009a558.886,558.886,0,0,1-87.627-6.6C3.271,68.485.23,64.462,0,59.014L.1,7.775A9.907,9.907,0,0,1,1.552,2.782,6.651,6.651,0,0,1,7.462,0c.181,0,.384.005.6.015a558.561,558.561,0,0,0,87.588,6.6A578.913,578.913,0,0,0,159.128,3.22c.3-.024.588-.037.867-.037A8.378,8.378,0,0,1,165.508,5.1a8.441,8.441,0,0,1,2.7,6.179l-.1,51.246a10.566,10.566,0,0,1-9.11,10.2A578.431,578.431,0,0,1,95.572,76.112ZM68.71,50.062a3.6,3.6,0,0,0-2.137.708,3.429,3.429,0,0,0-1.162,3.7,3.619,3.619,0,0,0,1.159,1.778,4.1,4.1,0,0,0,2.265.9c8.8.388,17.8.584,26.753.584,8.082,0,16.24-.16,24.247-.477a3.924,3.924,0,0,0,2.584-1.15l-.023.008a3.589,3.589,0,0,0,.843-3.871,3.5,3.5,0,0,0-3.366-2.072c-8.3.32-16.606.482-24.676.482-8.928,0-17.784-.2-26.324-.589C68.825,50.063,68.772,50.062,68.71,50.062ZM27.473,11.489a17.69,17.69,0,0,0-10.9,3.686,18.734,18.734,0,0,0-6.6,10.068,24.945,24.945,0,0,0-.041,12.543,25.96,25.96,0,0,0,6.66,12.033,23.613,23.613,0,0,0,5.779,4.3,24.481,24.481,0,0,0,7.339,2.466,18.875,18.875,0,0,0,15.141-5.071,20.662,20.662,0,0,0,6.421-13.041,23.128,23.128,0,0,0-1.256-10.22A25.376,25.376,0,0,0,44.9,19.774C40.217,14.586,33.7,11.489,27.473,11.489Zm41.34,25.73a3.964,3.964,0,0,0-1.925.5,3.647,3.647,0,0,0-1.463,3.773,3.764,3.764,0,0,0,3.456,2.853c8.807.385,17.743.58,26.562.58,16.12,0,32.439-.652,48.508-1.938a4.055,4.055,0,0,0,2.57-1.265l-.023.007a3.906,3.906,0,0,0,.8-4.008,3.365,3.365,0,0,0-3.318-1.858C127.917,37.151,111.607,37.8,95.5,37.8c-8.827,0-17.775-.2-26.594-.584Zm-.6-15.1a3.24,3.24,0,0,0-1.612.429,2.99,2.99,0,0,0-1.2,3.092A3.107,3.107,0,0,0,68.246,28c9.041.408,18.278.616,27.453.616s18.419-.207,27.481-.616a3.3,3.3,0,0,0,1.925-.767,2.86,2.86,0,0,0-1.741-5.127c-.058,0-.117,0-.176.005-9.06.4-18.3.61-27.477.61s-18.409-.205-27.449-.61Z" transform="translate(0.206 102.251)"/><path class="s" d="M22.28,44.417a19.573,19.573,0,0,1-7.87-1.661,22.608,22.608,0,0,1-7.33-5.213,24.786,24.786,0,0,1-4.246-6.116A27.339,27.339,0,0,1,.481,24.4,24.336,24.336,0,0,1,1.745,10.416,16.643,16.643,0,0,1,7.834,2.949,18.881,18.881,0,0,1,18.494,0c.547,0,1.113.018,1.682.053A22.6,22.6,0,0,1,28.471,2.7a24.931,24.931,0,0,1,6.771,5.421,25.228,25.228,0,0,1,4.564,7.411,23.286,23.286,0,0,1,1.673,8.621,22.17,22.17,0,0,1-1.6,8.41,19.187,19.187,0,0,1-4.252,6.383,18.941,18.941,0,0,1-13.343,5.47Zm-6.69-21.942-2.86.414a3.532,3.532,0,0,0-2.921,3.642v1.6a2.29,2.29,0,0,0,1.91,2.3c5.406.712,11.121,1.364,16.985,1.94a1.825,1.825,0,0,0,2.009-1.886v-1.6a3.894,3.894,0,0,0-1.477-3.348A17.114,17.114,0,0,0,24.8,23.52l-.006,0a6.746,6.746,0,0,1-3.72,1.115,6.86,6.86,0,0,1-.881-.058,8.16,8.16,0,0,1-4.6-2.1ZM19.5,9.216a5.73,5.73,0,0,0-3.463,1.174,5.8,5.8,0,0,0-2.124,3.162,7.438,7.438,0,0,0,.04,3.828,8.428,8.428,0,0,0,2.183,3.8,6.922,6.922,0,0,0,4,1.978,5.882,5.882,0,0,0,6.54-5.314,7.727,7.727,0,0,0-1.9-6.075A7.233,7.233,0,0,0,19.5,9.216Z" transform="translate(9.79 114.267)"/><path class="t" d="M54.071,77.618h0c-15.014,0-30.216-.569-45.183-1.692A10.087,10.087,0,0,1,2.6,72.741a10.557,10.557,0,0,1-2.6-6.7L.107,9.413a8.991,8.991,0,0,1,2.5-6.145,8.521,8.521,0,0,1,6.1-2.241c.107,0,.215,0,.323,0C24,2.154,39.206,2.723,54.218,2.723c18.959,0,38.141-.907,57.014-2.7.249-.018.5-.027.749-.027a8.638,8.638,0,0,1,5.635,1.943,8.491,8.491,0,0,1,2.78,6.236l-.108,56.636a10.436,10.436,0,0,1-9.2,10.107C92.211,76.71,73.028,77.618,54.071,77.618Zm-.586-50.483-.054,26.071c7.1-4.228,16.1-9.693,22.161-13.4C68.144,35.618,58.545,30.069,53.485,27.134Z" transform="translate(141.444 0.564)"/><path class="c" d="M22.59,45.037a19.872,19.872,0,0,1-7.98-1.686,22.945,22.945,0,0,1-7.434-5.287,25.152,25.152,0,0,1-4.305-6.2,27.741,27.741,0,0,1-2.384-7.12A24.674,24.674,0,0,1,1.769,10.564,16.876,16.876,0,0,1,7.944,2.992,19.141,19.141,0,0,1,18.755,0c.555,0,1.128.018,1.7.054,11.9,1.357,21.594,12.317,21.6,24.431a22.491,22.491,0,0,1-1.627,8.531,19.451,19.451,0,0,1-4.312,6.473,19.2,19.2,0,0,1-13.527,5.547h0ZM18.168.116h0a17.769,17.769,0,0,0-5.552.875,17.577,17.577,0,0,0-5.2,2.758A18.436,18.436,0,0,0,.906,13.664,24.576,24.576,0,0,0,.864,26.023,25.592,25.592,0,0,0,7.432,37.895a23.288,23.288,0,0,0,5.7,4.24,24.134,24.134,0,0,0,7.241,2.432,18.6,18.6,0,0,0,14.925-5,20.379,20.379,0,0,0,6.33-12.857H41.6a22.8,22.8,0,0,0-1.227-10.072,24.957,24.957,0,0,0-5.028-8.353C30.73,3.169,24.309.117,18.168.117Z" transform="translate(9.547 113.96)"/><path class="c" d="M57.879,0C39.476.84,20.957.825,2.953,0-.459.188-.551,3.463.852,4.92a3.067,3.067,0,0,0,2.086.959c18,.767,36.546.82,54.934,0A3.022,3.022,0,0,0,60.019.764,2.945,2.945,0,0,0,57.879,0Z" transform="translate(65.522 124.346)"/><path class="c" d="M80.65.444A3.834,3.834,0,0,0,78.625.007,606.544,606.544,0,0,1,3.586,1.372C-.555,1.6-.67,5.566,1.032,7.345A3.834,3.834,0,0,0,3.57,8.511a608.016,608.016,0,0,0,75.07-1.357C83.1,6.333,82.873,1.74,80.65.444Z" transform="translate(65.526 138.1)"/><path class="c" d="M56.882.813a3.673,3.673,0,0,0-2.3-.705C37.489.782,20.305.728,3.581,0A3.44,3.44,0,0,0,1.043,5.935a3.75,3.75,0,0,0,2.523,1.15c16.732.767,33.916.767,51,.107C58.316,6.855,59.328,2.668,56.882.813Z" transform="translate(65.477 152.323)"/><path class="c" d="M17.867,2.116,14.93,1.043A7.587,7.587,0,0,1,5.782,0C1.856.575.069.836,0,4.056v1.6a2.346,2.346,0,0,0,1.909,2.3C7.446,8.688,13.12,9.332,18.894,9.9A1.825,1.825,0,0,0,20.9,8.013V6.441a4.685,4.685,0,0,0-3.037-4.325Z" transform="translate(19.599 136.711)"/><path class="c" d="M13.07,8.352A7.783,7.783,0,0,0,6.529.033c-5.851-.567-8.7,6.387-4.6,11.28C5.747,15.936,12.526,14.111,13.07,8.352Z" transform="translate(23.422 123.535)"/><path class="c" d="M0,25.079c6.37-3.834,14.842-8.982,21.161-12.89C14.805,8.576,6.356,3.709.051,0Z" transform="translate(194.444 28.564)"/></g><g transform="translate(88.694 -101) rotate(180)"><path class="u" d="M7.607,197.232a7.166,7.166,0,0,1-5.343-1.93A9.452,9.452,0,0,1,0,189.454L.276,41.774c.536-5.61,3.32-9.046,8.511-10.5,10.171-1.757,19.678-3.811,28.257-6.106A191.632,191.632,0,0,0,59.6,17.739,94.444,94.444,0,0,0,76.082,9.292,38.188,38.188,0,0,0,86.151.114.448.448,0,0,1,86.508,0c.053,0,.107,0,.157.005h.02l.04,0,.088,0a.494.494,0,0,0,.08-.005c.565,1.523.714,2.47.767,6.7l-.275,147.671c-.045,8.2-1.032,10.438-1.562,11.64l-.018.039a38.226,38.226,0,0,1-10.073,9.181,94.084,94.084,0,0,1-16.5,8.447A191.212,191.212,0,0,1,36.684,191.1c-8.583,2.3-18.087,4.349-28.249,6.1C8.113,197.224,7.835,197.232,7.607,197.232ZM65.417,158.78a1.7,1.7,0,0,0-.584.117,181.754,181.754,0,0,1-31.876,10.812,4.54,4.54,0,0,0-2.592,2.017,6.57,6.57,0,0,0-1.069,3.083,5.168,5.168,0,0,0,.506,2.824,2.742,2.742,0,0,0,2.484,1.54,3.785,3.785,0,0,0,.656-.063A181.969,181.969,0,0,0,64.818,168.3a3.571,3.571,0,0,0,1.534-1.8v-.023c1.021-2.15,1.126-5.54.215-6.976A1.338,1.338,0,0,0,65.417,158.78Zm13.357-7.872a.814.814,0,0,0-.422.137,63.863,63.863,0,0,1-6.664,4.325,4.068,4.068,0,0,0-1.534,2.216c-.863,2.382-.834,5.475.063,6.754a1.134,1.134,0,0,0,.934.559,1.3,1.3,0,0,0,.536-.128,63.5,63.5,0,0,0,6.664-4.324c.2-.171.8-.691,1.25-2.669v-.023c.515-2.27.492-5.557-.309-6.559A.664.664,0,0,0,78.774,150.908Zm3.55-18.6h0l-.269.161c-8.96,8.368-25.93,15.872-49.075,21.7a4.508,4.508,0,0,0-2.6,2.016,6.552,6.552,0,0,0-1.068,3.08,5.144,5.144,0,0,0,.507,2.821,2.736,2.736,0,0,0,2.483,1.54,3.628,3.628,0,0,0,.662-.064c23.141-5.818,40.111-13.322,49.075-21.7v-.023a8.427,8.427,0,0,0,1.136-3.734,13.065,13.065,0,0,0-.061-4.659c-.175-.644-.441-1.027-.79-1.138Zm.007-15.543h0l-.268.161c-8.971,8.378-25.942,15.882-49.076,21.7a4.6,4.6,0,0,0-2.6,2.017,6.594,6.594,0,0,0-1.068,3.087,5.152,5.152,0,0,0,.508,2.822,2.734,2.734,0,0,0,2.48,1.538,3.689,3.689,0,0,0,.656-.063c23.142-5.818,40.112-13.322,49.075-21.7l.031-.022a8.392,8.392,0,0,0,1.132-3.721,13.047,13.047,0,0,0-.065-4.658c-.178-.656-.449-1.046-.806-1.16Zm-36.659,1.365a2.651,2.651,0,0,0-.624.076,284,284,0,0,1-30.181,7.316,4.963,4.963,0,0,0-2.944,1.924,5.509,5.509,0,0,0-.786,5.621,3.278,3.278,0,0,0,3.079,1.885,4.313,4.313,0,0,0,.628-.044A283.352,283.352,0,0,0,45.027,127.6a3.953,3.953,0,0,0,2.048-1.717,7.324,7.324,0,0,0,1.122-3.372,5.626,5.626,0,0,0-.527-3.073,2.216,2.216,0,0,0-1.993-1.3ZM30.488,103.656a6.508,6.508,0,0,0-1.067,3.071,5.2,5.2,0,0,0,.508,2.829,2.777,2.777,0,0,0,2.522,1.567,3.752,3.752,0,0,0,.636-.059,182.333,182.333,0,0,0,31.876-10.813A3.567,3.567,0,0,0,66.5,98.442c1.018-2.132,1.113-5.523.2-6.978a1.351,1.351,0,0,0-1.159-.725,1.7,1.7,0,0,0-.571.112,181.977,181.977,0,0,1-31.876,10.812,4.6,4.6,0,0,0-2.6,2.017Zm39.826-14.14h0a10.884,10.884,0,0,0-.651,3.825,5.563,5.563,0,0,0,.678,2.937,1.119,1.119,0,0,0,.923.559,1.271,1.271,0,0,0,.529-.128,64.783,64.783,0,0,0,6.672-4.325c.221-.2.807-.724,1.25-2.677.516-2.271.492-5.563-.312-6.571a.657.657,0,0,0-.514-.285.793.793,0,0,0-.409.131,63.868,63.868,0,0,1-6.664,4.325,4.059,4.059,0,0,0-1.534,2.216l.029-.008Zm12.1-25.274h0l-.268.161c-8.964,8.379-25.934,15.883-49.076,21.7a4.592,4.592,0,0,0-2.592,2.017,6.588,6.588,0,0,0-1.068,3.087,5.155,5.155,0,0,0,.508,2.822,2.736,2.736,0,0,0,2.48,1.537,3.649,3.649,0,0,0,.657-.063c23.136-5.813,40.106-13.317,49.076-21.7l.031-.008c.955-1.057,1.73-5.981,1.087-8.359-.183-.675-.463-1.077-.834-1.2Zm0-15.536h0c-.089.047-.179.1-.268.161-8.954,8.37-25.924,15.874-49.076,21.7a4.6,4.6,0,0,0-2.592,2.017,6.557,6.557,0,0,0-1.072,3.081,5.146,5.146,0,0,0,.5,2.822A2.741,2.741,0,0,0,32.4,80.032a3.621,3.621,0,0,0,.656-.063c23.141-5.817,40.112-13.321,49.076-21.7l.061-.008c.953-1.067,1.71-6,1.057-8.371-.184-.669-.465-1.068-.835-1.184ZM45.787,50.057a2.636,2.636,0,0,0-.623.076,282.457,282.457,0,0,1-30.173,7.346A4.951,4.951,0,0,0,12.046,59.4a5.479,5.479,0,0,0-.782,5.6,3.245,3.245,0,0,0,3.049,1.878,4.869,4.869,0,0,0,.654-.048,283.747,283.747,0,0,0,30.181-7.323A3.958,3.958,0,0,0,47.2,57.8a7.3,7.3,0,0,0,1.121-3.366,5.614,5.614,0,0,0-.528-3.073A2.223,2.223,0,0,0,45.787,50.057ZM26.1,36.841a3.481,3.481,0,0,0-1.153.272l-.507,2.282-.048.216c-.9,4.042-1.588,7.159-2.046,9.265l0,.012c-.248,1.094-.505,2.225-.11,2.722a.771.771,0,0,0,.643.262,1.8,1.8,0,0,0,.4-.044,3.636,3.636,0,0,0,.767-.214c.664-3.023,1.7-7.754,2.569-11.771.262-1.228.488-2.288.112-2.753A.746.746,0,0,0,26.1,36.841Zm-9.444,5.4a1.119,1.119,0,0,0-.968.47,3,3,0,0,0-.31,1.805l3.749,1.534-2.676,2.109-.069.046a2.107,2.107,0,0,0-.977,2.076,1.377,1.377,0,0,0,1.268.922l4.163-3.666c1.054-.947.669-2.85.407-3.3-.077-.131-.077-.131-3.321-1.664A3.162,3.162,0,0,0,16.654,42.237Z" transform="translate(0.077 0.476)"/><path class="v" d="M35.911.187A2.216,2.216,0,0,0,34.378.1,282.43,282.43,0,0,1,4.2,7.418c-4.563,1.127-5.521,7.193-2.3,9.033a3.428,3.428,0,0,0,2.3.368A282.883,282.883,0,0,0,34.378,9.5C38.035,8.1,38.58,1.468,35.911.187Z" transform="translate(10.864 50.537)"/><path class="c" d="M53.052,0a1.534,1.534,0,0,0-.268.161h0C43.973,8.4,27.226,15.942,3.708,21.862c-4.271,1.35-4.846,7.875-1.756,9.263a2.745,2.745,0,0,0,1.741.138C27.2,25.351,43.95,17.8,52.768,9.562,54.164,7.745,54.662.537,53.052,0Z" transform="translate(29.51 49.175)"/><path class="c" d="M53.037,0a2.3,2.3,0,0,0-.268.161C43.958,8.4,27.211,15.95,3.693,21.862c-4.271,1.357-4.816,7.883-1.748,9.278a2.784,2.784,0,0,0,1.741.13C27.2,25.358,43.943,17.805,52.761,9.57,54.149,7.745,54.648.537,53.037,0Z" transform="translate(29.494 64.711)"/><path class="c" d="M36.534.058a1.258,1.258,0,0,0-.943.077A181.827,181.827,0,0,1,3.715,10.947C-.564,12.3-1.139,18.822,1.951,20.21a2.8,2.8,0,0,0,1.741.138A182.242,182.242,0,0,0,35.568,9.536C38.459,7.887,38.666.771,36.534.058Z" transform="translate(29.45 91.192)"/><path class="w" d="M9.274,0a.7.7,0,0,0-.491.153A63.492,63.492,0,0,1,2.12,4.48c-2.784,1.886-2.638,9.286-.652,9.539a1.158,1.158,0,0,0,.629-.138A64.45,64.45,0,0,0,8.768,9.556C10.853,7.693,10.769.194,9.274,0Z" transform="translate(69.792 83.296)"/><path class="v" d="M35.922.187A2.155,2.155,0,0,0,34.389.1h0A282.952,282.952,0,0,1,4.207,7.418c-4.6,1.127-5.521,7.2-2.3,9.033a3.313,3.313,0,0,0,2.3.368A282.077,282.077,0,0,0,34.366,9.473C38.031,8.1,38.575,1.467,35.922.187Z" transform="translate(10.738 118.584)"/><path class="c" d="M53.059,0a1.917,1.917,0,0,0-.268.161C43.98,8.4,27.233,15.95,3.715,21.862c-4.279,1.357-4.854,7.883-1.764,9.263a2.745,2.745,0,0,0,1.741.138C27.21,25.351,43.957,17.8,52.767,9.562,54.209,7.768,54.669.537,53.059,0Z" transform="translate(29.373 117.222)"/><path class="c" d="M53.059,0a2.485,2.485,0,0,0-.268.161C43.98,8.4,27.233,15.942,3.715,21.862c-4.279,1.35-4.854,7.875-1.764,9.263a2.76,2.76,0,0,0,1.748.13c23.51-5.912,40.257-13.465,49.076-21.7C54.178,7.745,54.677.537,53.059,0Z" transform="translate(29.342 132.765)"/><path class="c" d="M36.529.058a1.258,1.258,0,0,0-.943.077A181.607,181.607,0,0,1,3.71,10.947C-.569,12.3-1.136,18.822,1.954,20.21a2.745,2.745,0,0,0,1.741.138A181.827,181.827,0,0,0,35.571,9.536C38.454,7.948,38.661.794,36.529.058Z" transform="translate(29.324 159.216)"/><path class="w" d="M9.27,0a.705.705,0,0,0-.491.153A63.492,63.492,0,0,1,2.115,4.48c-2.784,1.894-2.63,9.294-.644,9.547a1.173,1.173,0,0,0,.629-.146A63.492,63.492,0,0,0,8.764,9.556C10.849,7.693,10.765.193,9.27,0Z" transform="translate(69.665 151.343)"/><path class="c" d="M1.191.03C-.343.359.04,2.33.048,2.33L3.8,3.864C.431,6.509.431,6.509.232,6.931c0,0-.859,1.848,1.112,2.093C5.715,5.19,5.715,5.19,5.868,4.93a3.282,3.282,0,0,0-.046-3.006C1.674-.062,1.674-.062,1.191.03Z" transform="translate(15.403 42.674)"/><path class="c" d="M3.7.047a4.524,4.524,0,0,0-.767.222C.025,13.412.025,13.412.009,13.681c-.061.936.138,1.794,2.017,1.089,2.86-13.1,2.86-13.1,2.876-13.227C4.978,1.021,5.116-.26,3.7.047Z" transform="translate(22.075 37.32)"/></g><g transform="translate(508.77 -45) rotate(180)"><path class="u" d="M116.271,265.5h0a482.542,482.542,0,0,1-60.109-12.877c-18.189-5.274-33.311-11.3-44.943-17.919A92.064,92.064,0,0,1,0,227.312L.355,36.455a93.669,93.669,0,0,0,11.224,7.392c11.636,6.618,26.753,12.647,44.932,17.919a481.275,481.275,0,0,0,60.12,12.875l-.36,190.859h0ZM17.928,207.321l-.146,4.4a232.232,232.232,0,0,0,37.964,14.312,455.251,455.251,0,0,0,48.08,10.954v-4.4a453.7,453.7,0,0,1-48.062-10.957A229.086,229.086,0,0,1,17.928,207.321Zm0-10.482.007,4.409a230.233,230.233,0,0,0,37.942,14.343,455.041,455.041,0,0,0,48.086,10.962v-4.409A453.578,453.578,0,0,1,55.87,211.168,232.322,232.322,0,0,1,17.928,196.839Zm0-13.887v5.084a202.857,202.857,0,0,0,23.886,9.846V192.8A202.852,202.852,0,0,1,17.928,182.952Zm-9.806-9.084c-.028,0-.061,0-.125.005-.975.075-1.789,1.116-2.291,2.932a20.533,20.533,0,0,0-.164,8.522c.618,3.391,1.918,5.937,3.659,7.171a2.055,2.055,0,0,0,1.12.324,2.09,2.09,0,0,0,1.656-.807c1.124-1.258,1.684-3.607,1.577-6.613a22.448,22.448,0,0,0-1.75-7.919c-1.044-2.332-2.34-3.616-3.649-3.616H8.123ZM18,148.04v4.4a232.033,232.033,0,0,0,37.941,14.307,456.312,456.312,0,0,0,48.086,10.959v-4.4a450.323,450.323,0,0,1-48.086-10.945A232.4,232.4,0,0,1,18,148.04Zm0-10.482v4.409a230.885,230.885,0,0,0,37.945,14.34,454.536,454.536,0,0,0,48.091,10.965v-4.409a453.107,453.107,0,0,1-48.087-10.979A233.061,233.061,0,0,1,18,137.558Zm0-13.887-.062,5.045a201.522,201.522,0,0,0,23.94,9.884v-5.083A202.251,202.251,0,0,1,18,123.671Zm-9.767-9.092c-.032,0-.074,0-.125,0-.987.085-1.807,1.156-2.309,3.013a20.643,20.643,0,0,0-.138,8.5c.622,3.364,1.921,5.892,3.658,7.116a2.046,2.046,0,0,0,1.113.324,2.075,2.075,0,0,0,1.655-.814c1.123-1.256,1.684-3.6,1.579-6.605a22.319,22.319,0,0,0-1.746-7.916c-1.046-2.339-2.345-3.627-3.658-3.627h-.03ZM18.059,88.75v4.409A232.006,232.006,0,0,0,56,107.466a455.584,455.584,0,0,0,48.093,10.959v-4.409A450.686,450.686,0,0,1,56,103.074,231.84,231.84,0,0,1,18.059,88.75Zm0-10.467v4.4A230.639,230.639,0,0,0,56,97.024a455.208,455.208,0,0,0,48.086,10.965v-4.4A453.189,453.189,0,0,1,56,92.609,232.961,232.961,0,0,1,18.059,78.283Zm0-13.894.007,5.115a202.85,202.85,0,0,0,23.879,9.853V74.272A202.6,202.6,0,0,1,18.059,64.389ZM8.367,55.3c-.051,0-.1,0-.154.006-.975.077-1.788,1.121-2.29,2.942a20.558,20.558,0,0,0-.161,8.521c.619,3.388,1.919,5.934,3.662,7.171a2.1,2.1,0,0,0,2.776-.491c1.122-1.257,1.68-3.6,1.573-6.608a22.368,22.368,0,0,0-1.75-7.918C10.977,56.582,9.679,55.3,8.367,55.3Z" transform="translate(0 28.883)"/><path class="x" d="M116.271,74.641A482.424,482.424,0,0,1,56.162,61.766c-18.189-5.275-33.31-11.3-44.943-17.919A93.609,93.609,0,0,1,0,36.454L.069,0A93.486,93.486,0,0,0,11.288,7.392C22.924,14.01,38.042,20.039,56.22,25.311A481.969,481.969,0,0,0,116.34,38.187l-.069,36.452ZM8.087,13.7h0c-.053,0-.106,0-.158.006-.973.075-1.785,1.115-2.288,2.93a20.544,20.544,0,0,0-.164,8.525C6.1,28.558,7.4,31.107,9.14,32.344a2.1,2.1,0,0,0,2.776-.491c1.124-1.254,1.686-3.6,1.582-6.6a22.348,22.348,0,0,0-1.741-7.911C10.708,15,9.405,13.7,8.088,13.7Z" transform="translate(0.353 28.883)"/><path class="c" d="M4.027.279C-.16-1.768-.988,7.909,1.106,14.082c1.641,4.854,4.6,6.288,6.272,3.067C9.978,12.28,7.531,2.334,4.027.279Z" transform="translate(5.504 42.651)"/><path class="c" d="M4.027.281h0C-.16-1.774-.988,7.9,1.106,14.084c1.641,4.854,4.6,6.3,6.272,3.067C9.978,12.274,7.508,2.336,4.027.281Z" transform="translate(5.428 84.249)"/><path class="c" d="M.008,5.076A202.192,202.192,0,0,0,23.886,14.93V9.846A201.816,201.816,0,0,1,0,0Z" transform="translate(18.043 93.271)"/><path class="c" d="M0,4.4c21.3,10.6,51.2,19.17,86.028,25.3V25.3C51.2,19.17,21.3,10.636,0,0Z" transform="translate(18.028 107.189)"/><path class="c" d="M0,4.409c21.3,10.6,51.2,19.17,86.036,25.266V25.266C51.2,19.132,21.3,10.6,0,0Z" transform="translate(18.005 117.633)"/><path class="c" d="M4.027.281C-.16-1.774-.988,7.9,1.106,14.084c1.641,4.854,4.6,6.3,6.272,3.067C10.016,12.289,7.5,2.352,4.027.281Z" transform="translate(5.32 143.515)"/><path class="c" d="M0,5.076A200.5,200.5,0,0,0,23.886,14.93V9.846A201.141,201.141,0,0,1,.008,0Z" transform="translate(17.936 152.522)"/><path class="c" d="M0,4.409c21.3,10.6,51.207,19.17,86.036,25.3V25.3C51.207,19.17,21.31,10.636,0,0Z" transform="translate(17.913 166.44)"/><path class="c" d="M0,4.4C21.3,15,51.2,23.572,86.028,29.668v-4.4C51.2,19.132,21.3,10.6,0,0Z" transform="translate(17.897 176.922)"/><path class="c" d="M4.033.279C-.154-1.768-.99,7.9,1.1,14.082c1.641,4.854,4.6,6.288,6.28,3.067C9.983,12.3,7.506,2.327,4.033.279Z" transform="translate(5.207 202.814)"/><path class="c" d="M0,5.084A201.816,201.816,0,0,0,23.886,14.93V9.846A201.816,201.816,0,0,1,0,0Z" transform="translate(17.828 211.835)"/><path class="c" d="M.008,4.409c21.3,10.6,51.2,19.17,86.028,25.3V25.3h0C51.2,19.17,21.3,10.643,0,0Z" transform="translate(17.798 225.722)"/><path class="c" d="M0,4.4c21.325,10.6,51.23,19.139,86.036,25.266v-4.4h0C51.23,19.139,21.325,10.6.008,0Z" transform="translate(17.782 236.204)"/><path class="y" d="M8.21,21c-.851.575-.767,1.756-1.534,2.385C6.576,23.331.7,12.3,3.1,9.153a2.3,2.3,0,0,0,.682-1.71c0-.069-1.143-6.963-1.6-7.277-3.006-1.61-2.86,8.757.215,19.139C5.081,28.392,8.931,33.2,10.825,29.8,12.742,26.284,8.677,21.276,8.21,21Z" transform="translate(38.988 0.315)"/><path class="y" d="M13.557,14.125a3.006,3.006,0,0,1-2.523.445h0C7.921,13.365.061.13,0,0V14.907a4.068,4.068,0,0,0,1.909,3.711q8.857,3.259,18.871,6.134c1.258.276,2.116-.659,2.185-2.377V7.461C21.655,9.018,13.634,14.079,13.557,14.125Z" transform="translate(73.852 24.674)"/><path class="y" d="M20.771,6.195C14.115,4.27,7.8,2.215,1.9.06-.056-.507-.991,3,1.524,7.452c.061.115,7.492,11.747,9.485,12.591h0c1.909.437,10.367-6.4,10.436-6.48a5.107,5.107,0,0,0,.828-6.042,2.876,2.876,0,0,0-1.5-1.327Z" transform="translate(73.854 16.8)"/></g></g></g></g></svg>